<svg width="197.588" height="69.56" viewBox="0 0 197.588 69.56" xmlns="http://www.w3.org/2000/svg"><g id="svgGroup" stroke-linecap="round" fill-rule="evenodd" font-size="9pt" stroke="#0a93eb" stroke-width="2" fill="none" style="stroke:#0a93eb;stroke-width:2;fill:none"><path d="M 15.416 68.62 L 0 68.62 L 0 1.88 L 28.482 1.88 Q 33.276 1.88 37.271 3.807 Q 41.266 5.734 44.18 8.977 Q 47.094 12.22 48.692 16.262 Q 50.29 20.304 50.29 24.534 Q 50.29 30.268 47.611 35.438 Q 44.932 40.608 40.185 43.851 A 18.573 18.573 0 0 1 31.754 46.933 A 23.823 23.823 0 0 1 28.952 47.094 L 15.416 47.094 L 15.416 68.62 Z M 170.798 56.306 L 170.798 0 L 185.838 0 L 185.838 51.042 A 13.483 13.483 0 0 0 185.918 52.564 Q 186.095 54.117 186.666 55.046 A 3.248 3.248 0 0 0 186.966 55.46 A 3.669 3.669 0 0 0 189.13 56.683 A 5.466 5.466 0 0 0 190.162 56.776 A 10.102 10.102 0 0 0 192.665 56.452 A 11.481 11.481 0 0 0 193.029 56.353 A 17.659 17.659 0 0 0 194.404 55.895 A 13.371 13.371 0 0 0 195.614 55.366 L 197.588 66.646 A 25.816 25.816 0 0 1 194.199 67.932 A 34.132 34.132 0 0 1 191.102 68.714 A 38.026 38.026 0 0 1 187.126 69.322 A 29.993 29.993 0 0 1 184.24 69.466 A 19.126 19.126 0 0 1 180.269 69.079 Q 176.664 68.313 174.323 66.035 A 11.152 11.152 0 0 1 171.336 60.789 Q 170.798 58.766 170.798 56.306 Z M 79.806 69.56 Q 73.508 69.56 68.573 67.492 Q 63.638 65.424 60.254 61.852 Q 56.87 58.28 55.131 53.674 Q 53.392 49.068 53.392 43.992 Q 53.392 38.822 55.131 34.216 Q 56.87 29.61 60.254 26.038 A 23.614 23.614 0 0 1 67.069 21.081 A 27.806 27.806 0 0 1 68.573 20.398 A 26.295 26.295 0 0 1 75.263 18.622 A 34.103 34.103 0 0 1 79.806 18.33 A 32.696 32.696 0 0 1 85.741 18.845 A 25.139 25.139 0 0 1 90.992 20.398 A 25.039 25.039 0 0 1 97.242 24.148 A 22.809 22.809 0 0 1 99.264 26.038 Q 102.648 29.61 104.434 34.216 Q 106.22 38.822 106.22 43.992 Q 106.22 49.068 104.434 53.674 Q 102.648 58.28 99.264 61.852 Q 95.88 65.424 90.992 67.492 A 25.765 25.765 0 0 1 84.511 69.244 A 33.799 33.799 0 0 1 79.806 69.56 Z M 137.146 69.56 Q 130.848 69.56 125.913 67.492 Q 120.978 65.424 117.594 61.852 Q 114.21 58.28 112.471 53.674 Q 110.732 49.068 110.732 43.992 Q 110.732 38.822 112.471 34.216 Q 114.21 29.61 117.594 26.038 A 23.614 23.614 0 0 1 124.409 21.081 A 27.806 27.806 0 0 1 125.913 20.398 A 26.295 26.295 0 0 1 132.603 18.622 A 34.103 34.103 0 0 1 137.146 18.33 A 32.696 32.696 0 0 1 143.081 18.845 A 25.139 25.139 0 0 1 148.332 20.398 A 25.039 25.039 0 0 1 154.582 24.148 A 22.809 22.809 0 0 1 156.604 26.038 Q 159.988 29.61 161.774 34.216 Q 163.56 38.822 163.56 43.992 Q 163.56 49.068 161.774 53.674 Q 159.988 58.28 156.604 61.852 Q 153.22 65.424 148.332 67.492 A 25.765 25.765 0 0 1 141.851 69.244 A 33.799 33.799 0 0 1 137.146 69.56 Z M 68.808 43.992 Q 68.808 47.846 70.265 50.76 A 12.279 12.279 0 0 0 72.154 53.554 A 10.428 10.428 0 0 0 74.166 55.272 A 9.843 9.843 0 0 0 78.922 56.838 A 12.186 12.186 0 0 0 79.806 56.87 Q 82.908 56.87 85.399 55.225 A 10.931 10.931 0 0 0 88.931 51.375 A 13.229 13.229 0 0 0 89.3 50.666 A 14.001 14.001 0 0 0 90.543 46.477 A 17.952 17.952 0 0 0 90.71 43.992 A 17.906 17.906 0 0 0 90.4 40.585 A 13.629 13.629 0 0 0 89.3 37.224 A 11.552 11.552 0 0 0 87.308 34.295 A 10.183 10.183 0 0 0 85.399 32.712 Q 82.908 31.114 79.806 31.114 A 10.837 10.837 0 0 0 76.47 31.613 A 9.513 9.513 0 0 0 74.166 32.712 Q 71.722 34.31 70.265 37.224 Q 68.808 40.138 68.808 43.992 Z M 126.148 43.992 Q 126.148 47.846 127.605 50.76 A 12.279 12.279 0 0 0 129.494 53.554 A 10.428 10.428 0 0 0 131.506 55.272 A 9.843 9.843 0 0 0 136.262 56.838 A 12.186 12.186 0 0 0 137.146 56.87 Q 140.248 56.87 142.739 55.225 A 10.931 10.931 0 0 0 146.271 51.375 A 13.229 13.229 0 0 0 146.64 50.666 A 14.001 14.001 0 0 0 147.883 46.477 A 17.952 17.952 0 0 0 148.05 43.992 A 17.906 17.906 0 0 0 147.74 40.585 A 13.629 13.629 0 0 0 146.64 37.224 A 11.552 11.552 0 0 0 144.648 34.295 A 10.183 10.183 0 0 0 142.739 32.712 Q 140.248 31.114 137.146 31.114 A 10.837 10.837 0 0 0 133.81 31.613 A 9.513 9.513 0 0 0 131.506 32.712 Q 129.062 34.31 127.605 37.224 Q 126.148 40.138 126.148 43.992 Z M 15.416 15.416 L 15.416 33.652 L 28.012 33.652 Q 29.798 33.652 31.302 32.618 A 6.337 6.337 0 0 0 32.816 31.128 Q 33.302 30.465 33.694 29.628 A 10.825 10.825 0 0 0 33.746 29.516 Q 34.686 27.448 34.686 24.44 A 14.648 14.648 0 0 0 34.534 22.266 Q 34.362 21.12 33.995 20.17 A 7.657 7.657 0 0 0 33.605 19.317 A 8.691 8.691 0 0 0 32.572 17.78 A 6.365 6.365 0 0 0 30.879 16.356 Q 29.234 15.416 27.448 15.416 L 15.416 15.416 Z"/></g></svg>