<svg width="175.404" height="69.56" viewBox="0 0 175.404 80.56" xmlns="http://www.w3.org/2000/svg"><g id="svgGroup" stroke-linecap="round" fill-rule="evenodd" font-size="9pt" stroke="#0a93eb" stroke-width="1" fill="#0a93eb" style="stroke:#0a93eb;stroke-width:1;fill:#0a93eb"><path d="M 110.074 61.382 L 115.244 51.888 A 46.503 46.503 0 0 0 119.697 54.778 A 34.682 34.682 0 0 0 124.033 56.87 Q 128.31 58.562 132.07 58.562 Q 133.951 58.562 135.284 58.17 A 5.749 5.749 0 0 0 136.582 57.622 Q 138.18 56.682 138.18 54.708 A 3.393 3.393 0 0 0 138.051 53.746 A 2.549 2.549 0 0 0 137.24 52.499 Q 136.32 51.717 134.453 51.069 A 18.073 18.073 0 0 0 134.373 51.042 A 52.375 52.375 0 0 0 132.802 50.535 Q 132.095 50.319 131.301 50.093 A 105.658 105.658 0 0 0 129.626 49.632 A 117.185 117.185 0 0 1 125.66 48.235 Q 123.745 47.519 122.112 46.817 A 55.504 55.504 0 0 1 120.226 45.966 A 18.795 18.795 0 0 1 117.575 44.449 Q 115.732 43.17 114.586 41.595 A 9.361 9.361 0 0 1 113.094 38.31 Q 112.779 37.044 112.72 35.567 A 17.351 17.351 0 0 1 112.706 34.874 Q 112.706 29.892 115.197 26.179 Q 117.688 22.466 122.294 20.398 A 22.513 22.513 0 0 1 127.519 18.815 Q 129.861 18.391 132.525 18.338 A 38.525 38.525 0 0 1 133.292 18.33 Q 138.368 18.33 143.209 19.928 A 24.853 24.853 0 0 1 150.332 23.693 A 29.944 29.944 0 0 1 152.28 25.286 L 146.452 34.686 A 55.847 55.847 0 0 0 143.427 32.734 Q 141.983 31.871 140.669 31.23 A 25.869 25.869 0 0 0 138.932 30.456 A 18.83 18.83 0 0 0 135.29 29.392 A 15.434 15.434 0 0 0 132.54 29.14 A 11.799 11.799 0 0 0 130.877 29.252 A 9.343 9.343 0 0 0 129.626 29.516 A 4.935 4.935 0 0 0 128.456 30.011 A 3.997 3.997 0 0 0 127.511 30.785 A 3.082 3.082 0 0 0 126.775 32.336 A 4.297 4.297 0 0 0 126.712 33.088 Q 126.712 34.498 127.511 35.344 A 4.08 4.08 0 0 0 128.225 35.934 Q 128.949 36.414 130.049 36.801 A 109.575 109.575 0 0 0 130.974 37.121 Q 132.446 37.624 134.42 38.258 A 108.28 108.28 0 0 1 138.712 39.604 Q 140.769 40.3 142.519 41.003 A 50.9 50.9 0 0 1 144.572 41.877 A 20.36 20.36 0 0 1 147.319 43.371 Q 149.372 44.715 150.635 46.389 A 9.475 9.475 0 0 1 152.212 49.726 Q 152.566 51.072 152.638 52.66 A 18.265 18.265 0 0 1 152.656 53.486 A 16.765 16.765 0 0 1 151.848 58.817 A 13.607 13.607 0 0 1 147.251 65.283 A 18.539 18.539 0 0 1 140.698 68.54 Q 138.016 69.297 134.821 69.492 A 37.426 37.426 0 0 1 132.54 69.56 Q 126.242 69.56 120.226 67.492 Q 114.21 65.424 110.074 61.382 Z M 15.416 68.62 L 0 68.62 L 0 1.88 L 28.482 1.88 Q 33.276 1.88 37.271 3.807 Q 41.266 5.734 44.18 8.977 Q 47.094 12.22 48.692 16.262 Q 50.29 20.304 50.29 24.534 Q 50.29 30.268 47.611 35.438 Q 44.932 40.608 40.185 43.851 A 18.573 18.573 0 0 1 31.754 46.933 A 23.823 23.823 0 0 1 28.952 47.094 L 15.416 47.094 L 15.416 68.62 Z M 79.806 69.56 Q 73.508 69.56 68.573 67.492 Q 63.638 65.424 60.254 61.852 Q 56.87 58.28 55.131 53.674 Q 53.392 49.068 53.392 43.992 Q 53.392 38.822 55.131 34.216 Q 56.87 29.61 60.254 26.038 A 23.614 23.614 0 0 1 67.069 21.081 A 27.806 27.806 0 0 1 68.573 20.398 A 26.295 26.295 0 0 1 75.263 18.622 A 34.103 34.103 0 0 1 79.806 18.33 A 32.696 32.696 0 0 1 85.741 18.845 A 25.139 25.139 0 0 1 90.992 20.398 A 25.039 25.039 0 0 1 97.242 24.148 A 22.809 22.809 0 0 1 99.264 26.038 Q 102.648 29.61 104.434 34.216 Q 106.22 38.822 106.22 43.992 Q 106.22 49.068 104.434 53.674 Q 102.648 58.28 99.264 61.852 Q 95.88 65.424 90.992 67.492 A 25.765 25.765 0 0 1 84.511 69.244 A 33.799 33.799 0 0 1 79.806 69.56 Z M 175.404 68.62 L 160.364 68.62 L 160.364 19.27 L 175.404 19.27 L 175.404 68.62 Z M 68.808 43.992 Q 68.808 47.846 70.265 50.76 A 12.279 12.279 0 0 0 72.154 53.554 A 10.428 10.428 0 0 0 74.166 55.272 A 9.843 9.843 0 0 0 78.922 56.838 A 12.186 12.186 0 0 0 79.806 56.87 Q 82.908 56.87 85.399 55.225 A 10.931 10.931 0 0 0 88.931 51.375 A 13.229 13.229 0 0 0 89.3 50.666 A 14.001 14.001 0 0 0 90.543 46.477 A 17.952 17.952 0 0 0 90.71 43.992 A 17.906 17.906 0 0 0 90.4 40.585 A 13.629 13.629 0 0 0 89.3 37.224 A 11.552 11.552 0 0 0 87.308 34.295 A 10.183 10.183 0 0 0 85.399 32.712 Q 82.908 31.114 79.806 31.114 A 10.837 10.837 0 0 0 76.47 31.613 A 9.513 9.513 0 0 0 74.166 32.712 Q 71.722 34.31 70.265 37.224 Q 68.808 40.138 68.808 43.992 Z M 15.416 15.416 L 15.416 33.652 L 28.012 33.652 Q 29.798 33.652 31.302 32.618 A 6.337 6.337 0 0 0 32.816 31.128 Q 33.302 30.465 33.694 29.628 A 10.825 10.825 0 0 0 33.746 29.516 Q 34.686 27.448 34.686 24.44 A 14.648 14.648 0 0 0 34.534 22.266 Q 34.362 21.12 33.995 20.17 A 7.657 7.657 0 0 0 33.605 19.317 A 8.691 8.691 0 0 0 32.572 17.78 A 6.365 6.365 0 0 0 30.879 16.356 Q 29.234 15.416 27.448 15.416 L 15.416 15.416 Z M 175.404 13.63 L 160.364 13.63 L 160.364 0 L 175.404 0 L 175.404 13.63 Z"/></g></svg>
