<?xml version="1.0" standalone="no"?>
<!DOCTYPE svg PUBLIC "-//W3C//DTD SVG 20010904//EN"
 "http://www.w3.org/TR/2001/REC-SVG-20010904/DTD/svg10.dtd">
<svg version="1.0" xmlns="http://www.w3.org/2000/svg"
 width="48" height="48" viewBox="0 0 1280.000000 1344.000000"
 preserveAspectRatio="xMidYMid meet">

<g transform="translate(0.000000,1344.000000) scale(0.100000,-0.100000)"
fill="#0a93eb" stroke="none">
<path d="M3565 11549 c-22 -4 -98 -15 -170 -24 -71 -9 -143 -20 -160 -25 -16
-4 -66 -16 -110 -25 -44 -10 -89 -21 -100 -25 -11 -5 -60 -20 -110 -35 -49
-14 -106 -32 -125 -40 -19 -8 -46 -17 -60 -21 -24 -6 -59 -21 -168 -70 -29
-13 -58 -24 -65 -24 -7 0 -17 -4 -22 -9 -6 -5 -58 -34 -117 -65 -59 -31 -128
-69 -154 -86 -26 -16 -54 -30 -61 -30 -7 0 -13 -3 -13 -7 0 -5 -21 -21 -48
-38 -26 -16 -49 -32 -52 -35 -3 -3 -38 -28 -79 -56 -41 -27 -84 -58 -96 -69
-12 -11 -32 -29 -46 -40 -13 -11 -49 -40 -79 -65 -68 -55 -288 -276 -355 -355
-28 -33 -59 -69 -70 -81 -11 -12 -31 -37 -45 -55 -14 -18 -32 -41 -40 -49 -8
-9 -23 -33 -34 -53 -10 -20 -26 -44 -35 -54 -29 -31 -167 -256 -217 -354 -27
-52 -54 -100 -61 -107 -7 -7 -13 -20 -13 -27 0 -8 -23 -69 -51 -137 -52 -126
-55 -134 -82 -203 -52 -131 -135 -476 -156 -645 -6 -47 -15 -120 -21 -163 -13
-100 -13 -577 0 -665 5 -37 17 -121 26 -187 15 -114 27 -173 59 -310 25 -107
37 -150 45 -170 5 -11 16 -42 24 -70 20 -67 63 -186 76 -207 5 -10 10 -22 10
-28 0 -12 38 -98 108 -240 48 -100 74 -146 129 -236 7 -10 21 -36 32 -57 26
-46 169 -249 211 -297 16 -19 30 -38 30 -42 0 -4 10 -18 23 -30 12 -13 44 -48
71 -78 123 -136 235 -247 345 -340 29 -25 67 -57 85 -73 45 -39 46 -40 109
-80 32 -21 60 -44 63 -52 4 -8 12 -15 20 -15 12 0 103 -56 114 -71 3 -3 32
-21 65 -38 62 -32 71 -38 143 -83 24 -16 46 -28 49 -28 4 0 34 -13 67 -29 34
-16 77 -36 96 -44 81 -34 147 -60 170 -68 14 -4 63 -22 110 -39 130 -47 360
-107 495 -128 39 -6 101 -16 139 -22 144 -23 417 -30 1216 -30 454 0 837 0
852 0 l27 0 3 -1067 3 -1068 28 -90 c16 -49 32 -94 36 -100 5 -5 14 -26 20
-46 6 -20 20 -45 30 -55 10 -11 24 -31 31 -45 34 -62 112 -143 204 -212 28
-20 56 -41 61 -45 15 -12 154 -69 215 -89 79 -26 351 -26 430 0 61 20 200 77
215 89 6 4 33 25 61 45 92 69 170 150 204 212 7 14 21 34 31 45 10 10 24 35
30 55 6 20 15 41 20 46 4 6 20 51 36 100 l28 90 3 1068 3 1067 27 0 c15 0 398
0 852 0 799 0 1072 7 1216 30 38 6 101 16 139 22 60 9 156 31 345 79 111 29
384 133 526 200 33 16 63 29 67 29 3 0 25 12 49 28 72 45 81 51 143 83 33 17
62 35 65 38 11 15 102 71 114 71 8 0 16 7 20 15 3 8 31 31 63 52 63 40 64 41
109 80 18 16 56 48 85 73 29 25 67 58 84 74 16 15 46 42 65 60 19 18 82 83
140 146 58 63 113 122 123 131 9 9 17 20 17 25 0 5 14 25 31 44 44 49 193 257
219 305 11 22 26 49 33 59 55 90 81 136 129 236 70 142 108 228 108 240 0 6 5
18 10 28 13 21 56 140 76 207 8 28 19 59 24 70 25 58 71 272 100 460 38 251
40 282 40 537 0 240 -3 292 -31 488 -5 41 -12 89 -14 105 -11 90 -109 468
-141 550 -9 22 -20 49 -24 60 -5 11 -31 75 -59 143 -28 68 -51 129 -51 137 0
7 -6 20 -13 27 -7 7 -34 55 -61 107 -50 98 -188 323 -217 354 -9 10 -25 34
-35 54 -11 20 -26 44 -34 53 -8 8 -26 31 -40 49 -14 18 -34 43 -45 55 -11 12
-41 46 -66 76 -68 81 -296 310 -354 356 -60 47 -102 82 -130 109 -12 11 -55
42 -96 69 -41 28 -76 53 -79 56 -3 3 -26 19 -52 35 -27 17 -48 33 -48 38 0 4
-6 7 -13 7 -7 0 -35 14 -61 30 -26 17 -95 55 -154 86 -59 31 -111 60 -116 65
-6 5 -16 9 -24 9 -7 0 -37 11 -65 24 -111 50 -143 64 -167 70 -14 4 -41 13
-60 21 -19 8 -75 26 -125 40 -49 15 -99 30 -110 35 -11 5 -33 11 -50 14 -33 5
-111 23 -165 37 -37 9 -53 12 -195 29 -49 6 -112 15 -138 21 -60 11 -5615 10
-5672 -2z m5520 -1714 c66 -7 127 -16 135 -18 8 -2 33 -7 55 -12 50 -9 129
-30 175 -45 161 -54 358 -164 520 -293 90 -72 243 -237 295 -321 11 -18 29
-42 41 -54 26 -28 144 -262 177 -352 48 -128 56 -163 88 -360 42 -263 -2 -646
-100 -865 -10 -22 -24 -56 -32 -75 -19 -51 -76 -156 -120 -224 -22 -32 -39
-60 -39 -63 0 -2 -14 -18 -31 -36 -16 -18 -36 -43 -44 -57 -16 -30 -245 -257
-245 -244 0 5 -5 2 -10 -7 -5 -9 -42 -39 -82 -65 -40 -27 -74 -52 -76 -56 -2
-5 -9 -8 -17 -8 -7 0 -18 -7 -25 -15 -7 -8 -23 -15 -36 -15 -13 0 -24 -4 -24
-9 0 -18 -216 -108 -350 -146 -30 -8 -104 -24 -164 -35 -105 -19 -152 -20
-1018 -20 l-908 0 0 420 1 420 862 0 c805 0 868 2 953 19 50 10 113 28 139 40
26 12 53 21 59 21 6 0 35 16 63 35 29 19 57 35 62 35 5 0 50 39 99 88 135 132
200 244 249 429 27 102 23 335 -7 418 -12 33 -24 71 -27 85 -4 14 -17 44 -30
67 -12 23 -23 48 -23 55 0 7 -16 31 -35 53 -19 22 -35 44 -35 49 0 14 -142
149 -183 175 -21 13 -43 29 -50 35 -7 7 -29 19 -50 25 -20 7 -37 17 -37 22 0
5 -9 9 -20 9 -12 0 -33 6 -48 14 -15 8 -62 21 -104 30 -69 14 -344 16 -2683
16 -2339 0 -2614 -2 -2683 -16 -42 -9 -89 -22 -104 -30 -15 -8 -36 -14 -48
-14 -11 0 -20 -4 -20 -8 0 -5 -18 -15 -40 -22 -22 -7 -40 -16 -40 -19 0 -3
-21 -19 -48 -36 -78 -49 -262 -249 -262 -285 0 -6 -11 -30 -23 -53 -13 -23
-26 -53 -30 -67 -3 -14 -15 -52 -27 -85 -30 -83 -34 -317 -7 -418 49 -185 114
-296 249 -429 48 -49 93 -88 98 -88 6 0 34 -16 63 -35 28 -19 57 -35 63 -35 6
0 33 -9 59 -21 26 -12 89 -30 139 -40 85 -17 148 -19 953 -19 l862 0 1 -420 0
-420 -904 0 c-857 0 -909 1 -1017 20 -125 22 -216 46 -323 86 -95 35 -196 85
-196 95 0 5 -7 9 -16 9 -14 0 -63 23 -89 43 -5 4 -43 30 -82 57 -40 28 -73 56
-73 62 0 6 -3 8 -7 5 -8 -8 -229 208 -248 243 -8 14 -28 39 -44 57 -17 18 -31
35 -31 39 0 4 -10 21 -23 38 -21 28 -44 66 -104 176 -11 19 -29 61 -41 92 -12
32 -26 66 -31 75 -6 10 -21 56 -35 103 -71 233 -93 519 -57 740 32 197 40 232
88 360 33 90 152 326 178 353 11 12 29 36 40 52 88 140 280 323 470 447 67 43
205 118 219 118 3 0 25 9 49 19 69 31 159 58 252 76 22 5 47 10 55 12 103 29
274 31 2805 31 2134 1 2590 -1 2690 -13z"/>
</g>
</svg>
